<svg height="508pt" viewBox="0 -43 508 508" width="508pt" xmlns="http://www.w3.org/2000/svg"><path d="m460.648438 169.671875h38.929687v82.65625h-38.929687zm0 0" fill="#00efd1"/><path d="m460.648438 252.328125v16.230469c.003906 11.390625-8.203126 21.121094-19.429688 23.042968l-102.019531 17.476563c-9.105469 1.566406-18.28125-2.382813-23.410157-10.066406l-25.359374-38.050781c-8.101563-12.152344-21.738282-19.453126-36.34375-19.453126-14.605469 0-28.246094 7.300782-36.347657 19.453126l-25.367187 38.050781c-5.125 7.6875-14.296875 11.632812-23.402344 10.066406l-102.019531-17.476563c-11.222657-1.921874-19.429688-11.652343-19.429688-23.042968v-132.597656c-.003906-12.910157 10.460938-23.378907 23.371094-23.382813h366.378906c12.914063.003906 23.378907 10.46875 23.378907 23.382813zm-50.707032-47.109375c0-23.171875-18.78125-41.957031-41.953125-41.957031-23.175781-.003907-41.960937 18.78125-41.957031 41.953125 0 23.175781 18.785156 41.957031 41.957031 41.957031 23.167969-.003906 41.949219-18.785156 41.953125-41.953125zm-227.972656 0c.003906-23.167969-18.777344-41.957031-41.949219-41.957031-23.171875-.003907-41.957031 18.777343-41.960937 41.949219 0 23.171874 18.78125 41.957031 41.953125 41.960937 23.167969-.003906 41.949219-18.78125 41.957031-41.953125zm0 0" fill="#00acea"/><path d="m367.988281 163.261719c23.171875 0 41.953125 18.785156 41.953125 41.953125-.003906 23.171875-18.785156 41.953125-41.953125 41.957031-23.171875 0-41.957031-18.78125-41.957031-41.953125-.003906-23.171875 18.785156-41.960938 41.957031-41.957031zm0 0" fill="#fedb41"/><path d="m140.011719 163.261719c23.167969-.003907 41.957031 18.777343 41.957031 41.949219.003906 23.171874-18.777344 41.957031-41.949219 41.960937-23.171875 0-41.957031-18.78125-41.960937-41.953125.003906-23.167969 18.78125-41.949219 41.953125-41.957031zm0 0" fill="#fedb41"/><path d="m8.421875 169.671875h39.097656v82.65625h-39.097656zm0 0" fill="#00efd1"/><g fill="#083863"><path d="m140.011719 155.261719c-27.589844 0-49.953125 22.367187-49.953125 49.953125.003906 27.589844 22.367187 49.953125 49.953125 49.957031 27.589843 0 49.957031-22.363281 49.957031-49.953125-.027344-27.578125-22.378906-49.929688-49.957031-49.957031zm0 83.910156c-18.753907-.003906-33.953125-15.210937-33.953125-33.960937.003906-18.753907 15.207031-33.953126 33.960937-33.949219 18.753907 0 33.953125 15.207031 33.949219 33.957031-.019531 18.746094-15.214844 33.933594-33.957031 33.953125zm0 0"/><path d="m367.988281 155.261719c-27.585937-.003907-49.957031 22.359375-49.957031 49.949219-.003906 27.589843 22.359375 49.957031 49.949219 49.960937 27.589843 0 49.957031-22.363281 49.960937-49.953125-.03125-27.574219-22.375-49.921875-49.953125-49.957031zm0 83.910156c-18.753906 0-33.957031-15.199219-33.957031-33.957031-.003906-18.753906 15.203125-33.957032 33.957031-33.953125 18.753907 0 33.953125 15.203125 33.953125 33.957031-.027344 18.742188-15.210937 33.925781-33.953125 33.953125zm0 0"/><path d="m499.578125 162h-30.578125v-26.039062c0-17.300782-14.425781-30.960938-31.730469-30.960938h-366.378906c-8.226563-.066406-16.132813 3.175781-21.941406 9-5.808594 5.820312-9.035157 13.734375-8.949219 21.960938v26.039062h-31.578125c-4.421875 0-8.421875 3.25-8.421875 7.671875v82.65625c0 4.421875 4 7.671875 8.421875 7.671875h31.578125v8.558594c-.140625 15.253906 10.804688 28.351562 25.839844 30.925781l101.898437 17.480469c1.730469.300781 3.484375.453125 5.238281.449218 10.484376 0 20.269532-5.242187 26.082032-13.964843l25.355468-38.050781c6.613282-9.921876 17.753907-15.882813 29.679688-15.882813s23.066406 5.960937 29.679688 15.882813l25.363281 38.054687c6.886719 10.308594 19.191406 15.601563 31.414062 13.515625l102.191407-17.480469c15.121093-2.53125 26.214843-15.597656 26.257812-30.929687v-8.558594h30.578125c4.417969 0 8.421875-3.25 8.421875-7.671875v-82.65625c0-4.421875-4-7.671875-8.421875-7.671875zm-483.578125 82v-66h24v66zm424.042969 39.714844-102.105469 17.484375c-6.003906 1.023437-12.050781-1.566407-15.445312-6.621094l-25.382813-38.050781c-9.589844-14.378906-25.730469-23.011719-43.011719-23.011719s-33.421875 8.632813-43.011718 23.011719l-25.375 38.054687c-3.371094 5.054688-9.402344 7.648438-15.390626 6.617188l-101.78125-17.484375c-7.34375-1.273438-12.664062-7.703125-12.539062-15.15625v-132.597656c-.089844-3.984376 1.449219-7.828126 4.257812-10.652344 2.808594-2.824219 6.648438-4.378906 10.632813-4.308594h366.378906c8.480469 0 15.730469 6.480469 15.730469 14.960938v32.066406c0 .53125-.171875 1.078125-.171875 1.644531 0 .5625.171875 1.109375.171875 1.640625v79.375c0 .53125-.171875 1.078125-.171875 1.640625 0 .566406.171875 1.113281.171875 1.644531v14.585938c-.0625 7.53125-5.527344 13.925781-12.957031 15.15625zm51.957031-39.714844h-23v-66h23zm0 0"/><path d="m254 63c4.417969 0 8-3.582031 8-8v-47c0-4.417969-3.582031-8-8-8s-8 3.582031-8 8v47c0 4.417969 3.582031 8 8 8zm0 0"/><path d="m315.398438 62.398438c1.910156.933593 4.109374 1.070312 6.113281.378906 2.007812-.691406 3.660156-2.152344 4.589843-4.058594l18.546876-38.019531c1.300781-2.574219 1.113281-5.648438-.484376-8.046875-1.601562-2.402344-4.371093-3.75-7.25-3.539063-2.875.214844-5.414062 1.960938-6.644531 4.570313l-18.546875 38.015625c-1.941406 3.972656-.292968 8.761719 3.675782 10.699219zm0 0"/><path d="m181.898438 58.71875c1.941406 3.96875 6.730468 5.617188 10.699218 3.679688 3.972656-1.9375 5.621094-6.726563 3.679688-10.699219l-18.546875-38.019531c-1.941407-3.96875-6.730469-5.617188-10.699219-3.679688-3.972656 1.941406-5.617188 6.730469-3.679688 10.699219zm0 0"/><path d="m254 359c-4.417969 0-8 3.582031-8 8v47c0 4.417969 3.582031 8 8 8s8-3.582031 8-8v-47c0-4.417969-3.582031-8-8-8zm0 0"/><path d="m192.601562 359.601562c-3.972656-1.941406-8.765624-.292968-10.703124 3.679688l-18.546876 38.019531c-1.300781 2.574219-1.113281 5.648438.484376 8.046875 1.601562 2.402344 4.371093 3.75 7.25 3.539063 2.875-.214844 5.414062-1.960938 6.644531-4.570313l18.546875-38.019531c1.9375-3.96875.292968-8.757813-3.675782-10.695313zm0 0"/><path d="m326.101562 363.28125c-1.238281-2.59375-3.773437-4.324219-6.640624-4.535156-2.867188-.207032-5.628907 1.140625-7.226563 3.527344-1.601563 2.386718-1.796875 5.453124-.511719 8.023437l18.546875 38.019531c1.230469 2.609375 3.769531 4.355469 6.644531 4.570313 2.878907.214843 5.648438-1.136719 7.25-3.535157 1.597657-2.398437 1.785157-5.476562.484376-8.050781zm0 0"/></g></svg>