<?xml version="1.0"?>
<svg xmlns="http://www.w3.org/2000/svg" height="512px" viewBox="0 -43 508 508" width="512px"><g><path d="m140.011719 155.261719c-27.589844 0-49.953125 22.367187-49.953125 49.953125 0 27.589844 22.363281 49.957031 49.953125 49.957031 27.589843 0 49.953125-22.367187 49.953125-49.957031-.03125-27.574219-22.378906-49.921875-49.953125-49.953125zm0 83.910156c-18.753907 0-33.953125-15.203125-33.953125-33.957031 0-18.75 15.199218-33.953125 33.953125-33.953125 18.75 0 33.953125 15.203125 33.953125 33.953125-.019532 18.746094-15.210938 33.933594-33.953125 33.957031zm0 0" data-original="#000000" class="active-path" data-old_color="#ffffff" fill="#ffffff"/><path d="m367.988281 155.261719c-27.589843 0-49.953125 22.367187-49.953125 49.953125 0 27.589844 22.363282 49.957031 49.953125 49.957031 27.589844 0 49.953125-22.367187 49.953125-49.957031-.027344-27.574219-22.375-49.921875-49.953125-49.953125zm0 83.910156c-18.75 0-33.953125-15.203125-33.953125-33.957031 0-18.75 15.203125-33.953125 33.953125-33.953125 18.753907 0 33.953125 15.203125 33.953125 33.953125-.019531 18.746094-15.210937 33.933594-33.953125 33.957031zm0 0" data-original="#000000" class="active-path" data-old_color="#ffffff" fill="#ffffff"/><path d="m499.582031 162h-30.582031v-26.039062c0-17.300782-14.425781-30.960938-31.726562-30.960938h-366.375c-8.226563-.066406-16.132813 3.171875-21.945313 8.996094-5.808594 5.824218-9.039063 13.738281-8.953125 21.964844v26.039062h-31.582031c-4.417969 0-8.417969 3.246094-8.417969 7.667969v82.664062c0 4.421875 4 7.667969 8.417969 7.667969h31.582031v8.558594c-.136719 15.25 10.804688 28.347656 25.835938 30.925781l101.902343 17.484375c1.726563.300781 3.476563.449219 5.230469.449219 10.484375-.003907 20.273438-5.246094 26.085938-13.972657l25.351562-38.046874c6.617188-9.925782 17.757812-15.886719 29.6875-15.886719s23.070312 5.960937 29.683594 15.886719l25.363281 38.042968c6.878906 10.316406 19.1875 15.613282 31.40625 13.527344l102.199219-17.484375c15.117187-2.539063 26.207031-15.601563 26.253906-30.925781v-8.558594h30.582031c4.417969 0 8.417969-3.246094 8.417969-7.667969v-82.664062c0-4.421875-4-7.667969-8.417969-7.667969zm-483.582031 82v-66h24v66zm424.042969 39.714844-102.109375 17.484375c-6.003906 1.023437-12.046875-1.570313-15.441406-6.625l-25.382813-38.046875c-9.589844-14.375-25.730469-23.011719-43.011719-23.011719-17.285156 0-33.421875 8.636719-43.011718 23.011719l-25.367188 38.042968c-3.371094 5.054688-9.40625 7.652344-15.398438 6.628907l-101.78125-17.484375c-7.339843-1.277344-12.660156-7.707032-12.539062-15.15625v-132.601563c-.089844-3.984375 1.453125-7.832031 4.261719-10.652343 2.8125-2.824219 6.65625-4.378907 10.636719-4.304688h366.375c8.480468 0 15.726562 6.480469 15.726562 14.960938v32.074218c0 .527344-.167969 1.074219-.167969 1.632813 0 .558593.167969 1.097656.167969 1.628906v79.402344c0 .527343-.167969 1.070312-.167969 1.628906s.167969 1.101563.167969 1.632813v14.59375c-.0625 7.527343-5.527344 13.925781-12.957031 15.160156zm51.957031-39.714844h-23v-66h23zm0 0" data-original="#000000" class="active-path" data-old_color="#ffffff" fill="#ffffff"/><path d="m254 63c4.417969 0 8-3.582031 8-8v-47c0-4.417969-3.582031-8-8-8s-8 3.582031-8 8v47c0 4.417969 3.582031 8 8 8zm0 0" data-original="#000000" class="active-path" data-old_color="#ffffff" fill="#ffffff"/><path d="m315.398438 62.398438c3.972656 1.941406 8.765624.292968 10.703124-3.679688l18.546876-38.019531c1.28125-2.570313 1.085937-5.636719-.515626-8.023438-1.597656-2.386719-4.359374-3.734375-7.226562-3.523437-2.867188.207031-5.402344 1.9375-6.636719 4.535156l-18.546875 38.011719c-1.941406 3.972656-.292968 8.761719 3.675782 10.699219zm0 0" data-original="#000000" class="active-path" data-old_color="#ffffff" fill="#ffffff"/><path d="m181.898438 58.71875c1.238281 2.59375 3.773437 4.324219 6.640624 4.535156 2.871094.207032 5.628907-1.140625 7.230469-3.527344 1.597657-2.390624 1.792969-5.453124.507813-8.027343l-18.546875-38.019531c-1.957031-3.929688-6.71875-5.546876-10.664063-3.621094-3.949218 1.925781-5.605468 6.671875-3.714844 10.636718zm0 0" data-original="#000000" class="active-path" data-old_color="#ffffff" fill="#ffffff"/><path d="m254 359c-4.417969 0-8 3.582031-8 8v47c0 4.417969 3.582031 8 8 8s8-3.582031 8-8v-47c0-4.417969-3.582031-8-8-8zm0 0" data-original="#000000" class="active-path" data-old_color="#ffffff" fill="#ffffff"/><path d="m192.601562 359.601562c-3.972656-1.941406-8.765624-.292968-10.703124 3.679688l-18.546876 38.019531c-1.28125 2.570313-1.085937 5.636719.515626 8.023438 1.597656 2.386719 4.359374 3.734375 7.226562 3.523437 2.867188-.207031 5.402344-1.9375 6.636719-4.535156l18.546875-38.019531c1.9375-3.96875.289062-8.753907-3.675782-10.691407zm0 0" data-original="#000000" class="active-path" data-old_color="#ffffff" fill="#ffffff"/><path d="m326.101562 363.28125c-1.9375-3.96875-6.726562-5.621094-10.699218-3.683594s-5.621094 6.726563-3.683594 10.699219l18.546875 38.019531c1.957031 3.929688 6.71875 5.546875 10.664063 3.621094 3.949218-1.925781 5.605468-6.671875 3.714843-10.636719zm0 0" data-original="#000000" class="active-path" data-old_color="#ffffff" fill="#ffffff"/></g> </svg>
