<?xml version="1.0" encoding="utf-8"?>
<!-- Generator: Adobe Illustrator 16.0.0, SVG Export Plug-In . SVG Version: 6.00 Build 0)  -->
<!DOCTYPE svg PUBLIC "-//W3C//DTD SVG 1.1//EN" "http://www.w3.org/Graphics/SVG/1.1/DTD/svg11.dtd">
<svg version="1.1" id="Layer_1" xmlns="http://www.w3.org/2000/svg" xmlns:xlink="http://www.w3.org/1999/xlink" x="0px" y="0px"
	 width="512px" height="512px" viewBox="0 0 512 512" enable-background="new 0 0 512 512" xml:space="preserve">
<g>
	<path fill="#00BCD4" d="M25.818,232.658h51.18v108.495h-51.18V232.658z"/>
	<path fill="#00BCD4" d="M162.292,232.658h51.176v226.032h-51.176V232.658z"/>
	<path fill="#00BCD4" d="M298.766,232.658h51.177v124.389h-51.177V232.658z"/>
	<path fill="#00BCD4" d="M435.236,232.658h51.176v78.899h-51.176V232.658z"/>
</g>
<path fill="#02A9F4" d="M76.998,341.41v136.47c0,14.135-11.456,25.591-25.59,25.591c-14.13,0-25.59-11.456-25.59-25.591V341.41
	H76.998z"/>
<path fill="#00838F" d="M25.818,204.936h51.18c9.421,0,17.059,7.637,17.059,17.059c0,9.421-7.637,17.062-17.059,17.062h-51.18
	c-9.418,0-17.059-7.641-17.059-17.062C8.759,212.573,16.4,204.936,25.818,204.936z"/>
<path fill="#EF314C" d="M213.468,452.294v25.586c0,14.135-11.456,25.591-25.586,25.591c-14.134,0-25.59-11.456-25.59-25.591v-25.586
	H213.468z"/>
<path fill="#00838F" d="M162.292,204.936h51.176c9.421,0,17.059,7.637,17.059,17.059c0,9.421-7.637,17.062-17.059,17.062h-51.176
	c-9.422,0-17.059-7.641-17.059-17.062C145.233,212.573,152.87,204.936,162.292,204.936z"/>
<path fill="#60A917" d="M349.942,332.879V477.88c0,14.135-11.456,25.591-25.59,25.591c-14.131,0-25.587-11.456-25.587-25.591
	V332.879H349.942z"/>
<path fill="#00838F" d="M298.766,204.936h51.177c9.422,0,17.059,7.637,17.059,17.059c0,9.421-7.637,17.062-17.059,17.062h-51.177
	c-9.421,0-17.062-7.641-17.062-17.062C281.703,212.573,289.345,204.936,298.766,204.936z"/>
<path fill="#F44335" d="M486.412,290.233V477.88c0,14.135-11.455,25.591-25.586,25.591c-14.134,0-25.59-11.456-25.59-25.591V290.233
	H486.412z"/>
<path fill="#00838F" d="M435.236,204.936h51.176c9.422,0,17.06,7.637,17.06,17.059c0,9.421-7.638,17.062-17.06,17.062h-51.176
	c-9.422,0-17.059-7.641-17.059-17.062C418.178,212.573,425.814,204.936,435.236,204.936z"/>
<path fill="#EF314C" d="M68.467,145.232c0,9.421-7.637,17.059-17.059,17.059c-9.421,0-17.059-7.637-17.059-17.059
	s7.637-17.059,17.059-17.059C60.83,128.173,68.467,135.811,68.467,145.232z"/>
<path fill="#EF314C" d="M204.941,68.465c0,9.422-7.637,17.059-17.059,17.059c-9.421,0-17.059-7.637-17.059-17.059
	c0-9.421,7.637-17.059,17.059-17.059C197.304,51.407,204.941,59.044,204.941,68.465z"/>
<path fill="#EF314C" d="M341.411,136.701c0,9.421-7.638,17.059-17.059,17.059c-9.422,0-17.06-7.637-17.06-17.059
	s7.638-17.059,17.06-17.059C333.773,119.642,341.411,127.279,341.411,136.701z"/>
<path fill="#EF314C" d="M477.885,59.934c0,9.421-7.637,17.059-17.059,17.059c-9.421,0-17.059-7.638-17.059-17.059
	s7.638-17.059,17.059-17.059C470.248,42.875,477.885,50.513,477.885,59.934z"/>
<path d="M51.408,512.002c-18.835-0.023-34.098-15.286-34.117-34.122V239.057c0-4.712,3.818-8.531,8.527-8.531h51.18
	c4.709,0,8.527,3.819,8.527,8.531V477.88C85.506,496.716,70.243,511.979,51.408,512.002z M34.349,247.584V477.88
	c0,9.422,7.637,17.062,17.059,17.062c9.422,0,17.059-7.641,17.059-17.062V247.584H34.349z"/>
<path d="M76.998,247.584h-51.18c-14.13,0-25.586-11.456-25.586-25.59c0-14.13,11.456-25.586,25.586-25.586h51.18
	c14.13,0,25.586,11.456,25.586,25.586C102.584,236.129,91.128,247.584,76.998,247.584z M25.818,213.467
	c-4.709,0-8.527,3.819-8.527,8.528c0,4.712,3.818,8.531,8.527,8.531h51.18c4.709,0,8.527-3.819,8.527-8.531
	c0-4.709-3.818-8.528-8.527-8.528H25.818z"/>
<path d="M187.882,512.002c-18.835-0.023-34.098-15.286-34.121-34.122V239.057c0-4.712,3.822-8.531,8.531-8.531h51.176
	c4.713,0,8.531,3.819,8.531,8.531V477.88C221.976,496.716,206.713,511.979,187.882,512.002z M170.823,247.584V477.88
	c0,9.422,7.637,17.062,17.059,17.062c9.422,0,17.059-7.641,17.059-17.062V247.584H170.823z"/>
<path d="M213.468,247.584h-51.176c-14.13,0-25.59-11.456-25.59-25.59c0-14.13,11.46-25.586,25.59-25.586h51.176
	c14.134,0,25.59,11.456,25.59,25.586C239.059,236.129,227.603,247.584,213.468,247.584z M162.292,213.467
	c-4.709,0-8.531,3.819-8.531,8.528c0,4.712,3.822,8.531,8.531,8.531h51.176c4.713,0,8.531-3.819,8.531-8.531
	c0-4.709-3.818-8.528-8.531-8.528H162.292z"/>
<path d="M324.353,512.002c-18.835-0.023-34.099-15.286-34.118-34.122V239.057c0-4.712,3.818-8.531,8.531-8.531h51.177
	c4.709,0,8.527,3.819,8.527,8.531V477.88C358.45,496.716,343.188,511.979,324.353,512.002z M307.293,247.584V477.88
	c0,9.422,7.638,17.062,17.06,17.062c9.421,0,17.059-7.641,17.059-17.062V247.584H307.293z"/>
<path d="M349.942,247.584h-51.177c-14.134,0-25.59-11.456-25.59-25.59c0-14.13,11.456-25.586,25.59-25.586h51.177
	c14.13,0,25.586,11.456,25.586,25.586C375.528,236.129,364.072,247.584,349.942,247.584z M298.766,213.467
	c-4.713,0-8.531,3.819-8.531,8.528c0,4.712,3.818,8.531,8.531,8.531h51.177c4.709,0,8.527-3.819,8.527-8.531
	c0-4.709-3.818-8.528-8.527-8.528H298.766z"/>
<path d="M460.826,512.002c-18.835-0.02-34.098-15.286-34.117-34.122V239.057c0-4.712,3.818-8.531,8.527-8.531h51.176
	c4.713,0,8.532,3.819,8.532,8.531V477.88C494.925,496.716,479.662,511.982,460.826,512.002z M443.768,247.584V477.88
	c0,9.422,7.638,17.062,17.059,17.062c9.422,0,17.059-7.641,17.059-17.062V247.584H443.768z"/>
<path d="M486.412,247.584h-51.176c-14.131,0-25.59-11.456-25.59-25.59c0-14.13,11.459-25.586,25.59-25.586h51.176
	c14.135,0,25.591,11.456,25.591,25.586C512.003,236.129,500.547,247.584,486.412,247.584z M435.236,213.467
	c-4.709,0-8.527,3.819-8.527,8.528c0,4.712,3.818,8.531,8.527,8.531h51.176c4.713,0,8.532-3.819,8.532-8.531
	c0-4.709-3.819-8.528-8.532-8.528H435.236z"/>
<path d="M76.998,349.938h-51.18c-4.709,0-8.527-3.818-8.527-8.527c0-4.713,3.818-8.531,8.527-8.531h51.18
	c4.709,0,8.527,3.818,8.527,8.531C85.525,346.119,81.707,349.938,76.998,349.938z"/>
<path d="M213.468,460.821h-51.176c-4.709,0-8.531-3.818-8.531-8.527c0-4.713,3.822-8.531,8.531-8.531h51.176
	c4.713,0,8.531,3.818,8.531,8.531C222,457.003,218.181,460.821,213.468,460.821z"/>
<path d="M349.942,341.41h-51.177c-4.713,0-8.531-3.818-8.531-8.531c0-4.709,3.818-8.527,8.531-8.527h51.177
	c4.709,0,8.527,3.818,8.527,8.527C358.47,337.592,354.651,341.41,349.942,341.41z"/>
<path d="M486.412,298.761h-51.176c-4.709,0-8.527-3.818-8.527-8.527c0-4.713,3.818-8.531,8.527-8.531h51.176
	c4.713,0,8.532,3.818,8.532,8.531C494.944,294.942,491.125,298.761,486.412,298.761z"/>
<path d="M51.408,170.818c-14.13,0-25.59-11.456-25.59-25.586c0-14.134,11.459-25.59,25.59-25.59c14.134,0,25.59,11.456,25.59,25.59
	C76.982,159.354,65.534,170.803,51.408,170.818z M51.408,136.701c-4.708,0-8.527,3.818-8.527,8.531c0,4.709,3.819,8.527,8.527,8.527
	c4.713,0,8.532-3.818,8.532-8.527C59.932,140.523,56.117,136.708,51.408,136.701z"/>
<path d="M187.882,94.052c-10.351,0-19.683-6.231-23.642-15.794c-3.959-9.562-1.772-20.569,5.548-27.886
	c7.317-7.321,18.324-9.507,27.886-5.548c9.559,3.959,15.794,13.291,15.794,23.642C213.453,82.592,202.004,94.036,187.882,94.052z
	 M187.882,59.934c-4.712,0-8.531,3.819-8.531,8.531c0,4.709,3.819,8.528,8.531,8.528c4.709,0,8.528-3.819,8.528-8.528
	C196.406,63.757,192.587,59.942,187.882,59.934z"/>
<path d="M324.353,162.291c-14.131,0-25.587-11.456-25.587-25.59c0-14.13,11.456-25.586,25.587-25.586
	c14.134,0,25.59,11.456,25.59,25.586C349.927,150.827,338.479,162.275,324.353,162.291z M324.353,128.173
	c-4.709,0-8.527,3.818-8.527,8.527c0,4.712,3.818,8.531,8.527,8.531c4.713,0,8.531-3.819,8.531-8.531
	C332.876,131.992,329.062,128.177,324.353,128.173z"/>
<path d="M460.826,85.524c-14.134,0-25.59-11.456-25.59-25.59c0-14.13,11.456-25.586,25.59-25.586
	c14.131,0,25.586,11.456,25.586,25.586C486.396,74.061,474.953,85.509,460.826,85.524z M460.826,51.407
	c-4.713,0-8.531,3.819-8.531,8.527c0,4.713,3.818,8.531,8.531,8.531c4.709,0,8.527-3.818,8.527-8.531
	C469.35,55.226,465.535,51.411,460.826,51.407z"/>
<path d="M8.767,187.877c-3.627,0.004-6.856-2.284-8.055-5.705c-1.203-3.42-0.109-7.223,2.721-9.488l29.342-23.455
	c2.382-1.905,5.595-2.393,8.434-1.285c2.838,1.113,4.869,3.651,5.326,6.665c0.46,3.015-0.727,6.041-3.104,7.946l-29.342,23.455
	C12.578,187.221,10.7,187.881,8.767,187.877z"/>
<path d="M308.051,140.113c-1.452,0-2.881-0.371-4.146-1.082L200.013,81.03c-2.725-1.453-4.455-4.264-4.521-7.353
	c-0.066-3.084,1.542-5.97,4.206-7.531c2.663-1.566,5.962-1.57,8.629-0.012l103.891,58.001c3.39,1.894,5.072,5.841,4.092,9.598
	C315.329,137.493,311.936,140.113,308.051,140.113z"/>
<path d="M476.593,62.152c-3.069-0.004-5.899-1.655-7.411-4.33c-1.511-2.67-1.472-5.947,0.105-8.578l26.867-44.867
	c1.515-2.718,4.389-4.396,7.501-4.377c3.111,0.02,5.966,1.729,7.449,4.463c1.483,2.733,1.359,6.06-0.32,8.676l-26.87,44.867
	C482.375,60.582,479.596,62.16,476.593,62.152z"/>
<path d="M338.861,136.189c-3.896,0-7.298-2.639-8.262-6.415c-0.969-3.779,0.75-7.727,4.17-9.597l107.46-58.685
	c2.679-1.507,5.962-1.457,8.594,0.129c2.632,1.589,4.205,4.467,4.119,7.54s-1.815,5.86-4.533,7.301l-107.472,58.681
	C341.688,135.83,340.286,136.189,338.861,136.189z"/>
<path d="M68.135,150.604c-3.745,0.004-7.052-2.433-8.161-6.005c-1.105-3.577,0.246-7.458,3.338-9.566l103.036-70.457
	c3.889-2.659,9.199-1.66,11.858,2.229c2.659,3.889,1.66,9.199-2.229,11.858L72.941,149.117
	C71.524,150.085,69.849,150.604,68.135,150.604z"/>
</svg>
