<?xml version="1.0" encoding="utf-8"?>
<!-- Generator: Adobe Illustrator 16.0.0, SVG Export Plug-In . SVG Version: 6.00 Build 0)  -->
<!DOCTYPE svg PUBLIC "-//W3C//DTD SVG 1.1//EN" "http://www.w3.org/Graphics/SVG/1.1/DTD/svg11.dtd">
<svg version="1.1" id="Layer_1" xmlns="http://www.w3.org/2000/svg" xmlns:xlink="http://www.w3.org/1999/xlink" x="0px" y="0px"
	 width="121.857px" height="123.834px" viewBox="0 0 121.857 123.834" enable-background="new 0 0 121.857 123.834"
	 xml:space="preserve">
<g>
	<g id="XMLID_374_">
		<g id="XMLID_444_">
			<g id="XMLID_318_">
				<path id="XMLID_315_" fill="#CFDFF2" d="M69.69,110.556c-3.372-0.652-6.629-1.286-10.375-0.91
					c-7.533,0.756-15.062,1.541-22.594,2.312c-4.18,0.428-12.359,1.238-16.412,0.094c-17.57-4.961-9.951-24.118-11.349-38.169
					c-0.771-7.748-4.656-14.744-6.82-22.202c-4.233-14.588,3.097-33.018,17.083-38.602c10.205-4.074,22.058-6.068,32.228-1.913
					c6.954,2.841,13.443,8.772,17.321,15.412c4.232,7.245,6.664,12.915,15.505,15.299c6.889,1.858,14.153,1.265,21.222,2.132
					c3.222,0.396,6.812,1.391,8.359,4.352c2.332,4.465-1.479,9.577-2.498,14.545c-1.286,6.27,2.803,10.379,5.374,15.461
					c3.009,5.949,5.023,12.974,1.785,19.325c-1.453,2.851-3.843,5.188-6.509,7.079c-10.566,7.408-23.985,7.877-36.272,6.738
					C73.607,111.312,71.63,110.931,69.69,110.556z"/>
				<path id="XMLID_614_" fill="#B7CCEA" d="M109.083,88.266c-1.512-5.619-3.72-11.299-3.616-15.878
					c0.119-5.196,3.935-11.013,0.76-15.917c-2.102-3.246-6.292-4.176-9.892-4.515c-5.008-0.473-10.315-0.219-15.05-2.162
					c-2.169-0.89-4.216-2.33-5.561-4.275c-1.534-2.221-1.85-4.971-2.968-7.382c-2.84-6.124-9.158-8.579-15.566-8.206
					c-5.849,0.34-11.752,2.333-17.382-0.169c-9-4-19-9-28-4C4.683,29.721,3.48,39.205,5.767,46.243
					c1.342,4.129,3.762,7.894,6.81,10.971c3.456,3.488,7.799,5.368,8.567,10.749c1.328,9.302-5.336,17.554-8.335,25.799
					c-4,11,7,17,16,12c7-3,13-11,22-6c2.766,2.213,4.317,4.81,6.139,7.803c0.264,0.434,0.535,0.876,0.925,1.201
					c0.714,0.597,1.704,0.707,2.63,0.794c5.535,0.516,11.156,1.381,16.71,1.558c5.077,0.16,10.268-0.822,15.266-1.746
					c4.439-0.82,9.964,0.023,13.684-3.025C111.725,101.788,110.915,95.072,109.083,88.266z"/>
				<path id="XMLID_442_" fill="#9BBCE3" d="M104.222,90.425c-1.369-5.089-3.369-10.233-3.274-14.38
					c0.107-4.706,3.563-9.973,0.688-14.414c-1.903-2.939-5.698-3.781-8.958-4.089c-4.535-0.428-9.341-0.198-13.629-1.958
					c-1.964-0.806-3.818-2.109-5.035-3.871c-1.389-2.011-1.675-4.501-2.688-6.685c-2.572-5.546-8.294-7.769-14.097-7.432
					c-5.296,0.308-10.643,2.113-15.741-0.153c-8.15-3.623-17.206-8.15-25.356-3.623c-6.454,3.585-7.542,12.174-5.472,18.548
					c1.215,3.739,3.407,7.149,6.167,9.935c3.129,3.158,7.062,4.861,7.758,9.734c1.202,8.424-4.833,15.897-7.548,23.364
					c-3.622,9.961,6.339,15.395,14.49,10.867c6.339-2.717,11.773-9.962,19.923-5.434c2.504,2.004,3.909,4.355,5.559,7.065
					c0.239,0.394,0.484,0.794,0.837,1.089c0.647,0.539,1.543,0.64,2.382,0.719c5.012,0.467,10.103,1.25,15.133,1.409
					c4.598,0.146,9.298-0.743,13.824-1.581c4.02-0.742,9.023,0.021,12.392-2.738C106.614,102.669,105.881,96.588,104.222,90.425z"/>
				<g id="XMLID_301_">
					<path id="XMLID_302_" fill="#2E307B" d="M52.204,42.697c0,0-37.907,10.015-38.895,11.367c-0.988,1.351-5.68,5.056-2.099,19.625
						c3.581,14.57,6.174,34.175,16.546,31.658c10.372-2.518,26.3-4.74,26.547-6.84C54.55,96.409,62.036,40.059,52.204,42.697z"/>
					<path id="XMLID_319_" fill="#686CB2" d="M52.204,42.697c0,0-34.385,9.086-38.491,11.113c-1.484,3.796,4.59,3.751,5.537,5.645
						c2.963,5.927,1.869,11.765-2.576,16.21c3.043-0.061,5.525,1.482,7.007,4.445c1.994,5.961,0.167,8.708-2.192,10.558
						c1.881,1.168,3.797,2.223,5.278,5.186c1.181,3.543,3.437,7.094,0.853,9.518c0.046-0.01,0.089-0.013,0.135-0.023
						c10.372-2.518,34.349-7.634,33.303-9.471C56.954,88.659,64.099,45.043,52.204,42.697z"/>
					<path id="XMLID_298_" fill="#F4E4E5" d="M93.309,88.626L33.86,112.029l8.06,3.619c18.916,8.494,40.776,7.279,58.635-3.257
						l14.954-8.823c5.183-3.059,3.555-10.945-2.415-11.701L93.309,88.626z"/>
					<linearGradient id="XMLID_2_" gradientUnits="userSpaceOnUse" x1="51.2778" y1="74.6763" x2="91.7056" y2="74.6763">
						<stop  offset="0" style="stop-color:#FDDCCC"/>
						<stop  offset="1" style="stop-color:#FBBB97"/>
					</linearGradient>
					<path id="XMLID_278_" fill="url(#XMLID_2_)" d="M51.278,60.848c0,0,8.458-5.927,10.742,6.667
						c0.974,5.368,1.173,6.729,1.173,6.729c7.162,1.111,8.141,3.694,17.225,4.754c6.945,0,10.526,3.704,10.526,3.704
						s1.111,2.778,0.648,4.075c-0.463,1.296-2.037,1.574-2.037,1.574s0.031,1.081-0.371,1.514c-0.401,0.432-0.957-3.489-2.223-4.322
						c-1.266-0.833-0.37,1.42-0.771,1.667c-0.401,0.247-2.006-1.389-3.21-3.396c-1.204-2.006-5.587,1.372-24.17-1.914
						C52.976,76.112,51.278,60.848,51.278,60.848z"/>
					<path id="XMLID_290_" fill="#EE6A6A" d="M64.099,68.148c-0.478-1.136-1.087-3.015-1.614-4.436
						c-5.029-13.574-11.207-11.536-11.207-11.536s1.494,10.994,4.337,19.475C57.758,71.137,62.267,69.229,64.099,68.148z"/>
					<path id="XMLID_312_" fill="#F27070" d="M59.247,99.625c-3.63,3.541-12.224,5.822-18.699,5.719
						c-3.008-0.029-4.531-0.451-8.132-0.971c-7.809-13.953-8.122-27.463-8.122-27.463l-1.852,0.489c0,0-4.075-6.179-4.193-14.076
						c-0.119-7.913,12.417-12.165,13.528-12.536c9.009-3.097,16.729-0.607,22.522,1.66C60.415,65.91,55.172,84.673,59.247,99.625z"
						/>
					<path id="XMLID_307_" fill="#E7E7E7" d="M37.599,94.304c3.734,8.787,3.067,10.802,2.949,11.039
						c-3.008-0.029-5.557-0.593-6.919-1.778c-6.675-8.329-9.335-26.656-9.335-26.656l0.741-0.237c0,0,2.563-0.355,4.742-3.156
						c2.178-2.786,3.853-2.415,3.853-2.415s-1.422-4.016-3.097-6.608c2.963,2.104,6.238,8.964,6.356,12.417
						c0.134,3.453,9.765,3.689,9.765,3.689S33.599,84.925,37.599,94.304z"/>
					<path id="XMLID_283_" fill="#FFFFFF" d="M31.999,47.977c0,0-2.785,2.66-3.216,4.092c0.672,3.146,6.631,8.582,8.569,8.045
						c1.884-3.69,3.19-3.883,3.19-3.883l0.208-4.963L31.999,47.977z"/>
					<path id="XMLID_282_" fill="#FFFFFF" d="M40.542,56.23c0,0,3.079,0.623,3.707,3.337c2.18-0.048,5.369-5.05,4.281-9.555
						c-1.631-2.582-5.503-3.525-5.503-3.525L40.542,56.23z"/>
					<path id="XMLID_313_" fill="#E15B5A" d="M45.408,50.031c-0.637,1.541-2.371,3.541-4.86,6.193
						c-0.578-2.282-6.045-3.63-8.372-5.542c-0.371-0.296-0.652-0.607-0.83-0.948V49.72c-0.044-0.074-0.074-0.148-0.104-0.237
						c-0.267-0.815,0.355-1.393,1.348-1.793c0.044-0.015,0.104-0.044,0.163-0.059c2.252-0.889,6.179-0.978,6.179-0.978
						s2.475-0.667,4.549-0.03c0.104,0.015,0.193,0.06,0.296,0.089c0.371,0.134,0.726,0.312,1.037,0.548
						c0.371,0.282,0.608,0.593,0.741,0.934C45.763,48.727,45.704,49.335,45.408,50.031z"/>
					<g id="XMLID_287_">
						<g>
							<g id="XMLID_18_">
								<path fill="#FCC9AF" d="M45.408,50.031c-0.637,1.541-2.371,3.541-4.86,6.193c-0.578-2.282-6.045-3.63-8.372-5.542
									c0.163-0.282,0.311-0.637,0.415-1.097c0.119-0.519,0.178-1.155,0.163-1.956c0-0.148,0-0.296-0.015-0.445
									c-0.222-3.704-3.052-7.779,1.2-7.823c4.267-0.044,9.542,2.03,9.542,2.178c0,0.089-0.163,2.86,0,5.082
									c0.06,0.771,0.148,1.467,0.296,1.986c0.104,0.37,0.237,0.637,0.4,0.755C44.593,49.675,45.037,49.883,45.408,50.031z"/>
							</g>
						</g>
					</g>
					<g id="XMLID_254_" opacity="0.3">
						<g>
							<g id="XMLID_19_">
								<path fill="#EF9D79" d="M43.581,52.822c0.869-1.07,1.498-1.993,1.827-2.791c-0.371-0.148-0.815-0.356-1.23-0.667
									c-0.163-0.118-0.296-0.385-0.4-0.755c-0.148-0.519-0.237-1.215-0.296-1.986c-0.163-2.222,0-4.993,0-5.082
									c0-0.148-5.275-2.223-9.542-2.178c-1.015,0.011-1.618,0.256-1.958,0.666C32.955,46.479,38.062,50.213,43.581,52.822z"/>
							</g>
						</g>
					</g>
					
						<linearGradient id="XMLID_6_" gradientUnits="userSpaceOnUse" x1="42.2231" y1="35.2871" x2="62.7637" y2="35.2871" gradientTransform="matrix(1.0515 -0.0018 -0.0018 1.0001 -15.3447 0.7295)">
						<stop  offset="0" style="stop-color:#FDDCCC"/>
						<stop  offset="1" style="stop-color:#FBBB97"/>
					</linearGradient>
					<path id="XMLID_291_" fill="url(#XMLID_6_)" d="M50.18,34.635c0,0,2.05,5.958-3.054,10.949
						c-1.195,1.168-0.516,1.916-3.023,2.368C31.426,48.352,29.14,35.427,29,31.374C28.859,27.321,51.498,15.137,50.18,34.635z"/>
					<path id="XMLID_281_" fill="#342C28" d="M28.461,41.289c0.743,0.648,1.577,1.206,2.516,1.649
						c0.721,0.341,1.526,0.604,2.308,0.445c-1.119-1.743-1.833-3.744-2.07-5.802c-0.062-0.536,0.003-1.229,0.516-1.398
						c0.361-0.12,0.741,0.107,1.027,0.357c0.826,0.723,1.391,1.737,1.57,2.819c-0.129-1.755,0.422-3.551,1.513-4.933
						c1.008-1.275,2.714-2.017,4.279-2.302c1.75-0.319,3.184,0.375,4.909,0.33c2.606-0.068,5.087-0.388,6.675-2.75
						c1.234-1.837,1.439-4.271,0.729-6.368c-1.26,0.773-2.939,0.381-4.183-0.419c-1.243-0.801-2.218-1.954-3.396-2.848
						c-2.109-1.601-4.8-2.303-7.448-2.364c-1.729-0.04-3.454,0.178-5.147,0.52c-1.543,0.312-3.113,0.499-4.169,1.781
						c-0.105,0.128-0.86,1.577-0.806,1.578c-2.43-0.045-5.804,2.478-4.724,7.408C23.514,33.352,25.012,38.284,28.461,41.289z"/>
					<g id="XMLID_299_">
						<path id="XMLID_297_" fill="#686CB2" d="M34.431,49.115l-4.228-6.296c-0.196-0.292-0.2-0.672-0.009-0.967l1.81-2.804
							c0.357-0.554,1.174-0.533,1.502,0.039l4.563,7.941c0.243,0.422,0.096,0.961-0.328,1.203l-2.64,1.504L34.431,49.115z"/>
						<path id="XMLID_294_" fill="#F27070" d="M34.218,48.876l-3.954-5.889c-0.184-0.273-0.187-0.629-0.008-0.905l1.558-2.344
							c0.334-0.518,1.098-0.498,1.405,0.036l4.268,7.428c0.227,0.395,0.09,0.899-0.306,1.125l-2.334,1.128L34.218,48.876z"/>
						<ellipse id="XMLID_288_" fill="#FFFFFF" cx="32.33" cy="42.553" rx="0.646" ry="0.812"/>
					</g>
					<linearGradient id="XMLID_8_" gradientUnits="userSpaceOnUse" x1="25.0391" y1="64.1279" x2="42.2241" y2="64.1279">
						<stop  offset="0" style="stop-color:#FDDCCC"/>
						<stop  offset="1" style="stop-color:#FBBB97"/>
					</linearGradient>
					<path id="XMLID_280_" fill="url(#XMLID_8_)" d="M25.039,76.679c5.557-1.447,4.445-5.398,8.593-5.583l0.315,0.584
						c0,0,0.292-4.474,3.409-14.445c0,0-3.241-5.649-3.427-7.038c-0.185-1.389,1.019-6.019,2.408-5.927
						c1.389,0.093,1.586,1.362,1.586,1.362s0.914,0.12,1.1,1.509c0,0,1.389-0.371,1.389,1.852c0.555,0.092,1.667,1.019,1.111,3.148
						c-0.556,2.13,1.692,4.815,0.151,5.927c-0.337,3.797,1.886,18.892-4.473,25.56C32.664,85.481,27.324,79.678,25.039,76.679z"/>
					<path id="XMLID_321_" fill="#2E3252" d="M106.413,96.357c-0.074,0.459-0.326,0.904-0.815,1.186l-24.122,14.091
						c-0.4,0.237-0.874,0.296-1.319,0.163l-17.099-5.008c-1.511-0.43-1.629-2.534-0.178-3.142l22.137-9.409l5.334-2.267
						c0.296-0.118,0.637-0.163,0.963-0.104l13.75,2.578C106.042,94.623,106.546,95.527,106.413,96.357z"/>
					<path id="XMLID_300_" fill="#EFB5BA" d="M106.413,96.357c-0.074,0.459-0.326,0.904-0.815,1.186l-24.122,14.091
						c-0.4,0.237-0.235-0.417-0.68-0.55l-17.099-5.008c-1.511-0.43-2.269-1.821-0.817-2.429l22.137-9.409l5.334-2.267
						c0.296-0.118,0.637-0.163,0.963-0.104l13.75,2.578C106.042,94.623,106.546,95.527,106.413,96.357z"/>
					<path id="XMLID_320_" fill="#F27070" d="M110.198,75.097c0.739-0.389,1.588,0.282,1.381,1.091l-5.167,20.169
						c-0.074,0.459-0.326,0.904-0.815,1.186l-24.122,14.091c-0.4,0.237-0.874,0.296-1.319,0.163l4.86-17.559l1.651-5.951
						c0.167-0.599,0.573-1.103,1.123-1.393L110.198,75.097z"/>
				</g>
				<g id="XMLID_314_">
					<g id="XMLID_304_">
						<path id="XMLID_279_" fill="#2E307B" d="M45.679,108.376l2.589,7.625c0,0,6.542,3.666,10.979-0.334
							c2.562-6.625,2.608-7.916,2.608-7.916L45.679,108.376z"/>
						<path id="XMLID_292_" fill="#686CB2" d="M44.809,106.959c0,0,0.808,2.603,1.542,3.833c0.733,1.23,12.25,1.584,15.083-0.541
							c1.333-3.167,1.257-3.617,1.257-3.617L44.809,106.959z"/>
						<path id="XMLID_295_" fill="#686CB2" d="M44.601,106.417l0.208,0.542c0,0,1.167,1.417,6.167,1.292s11.056-0.024,11.715-1.617
							C63.351,105.042,47.976,104.792,44.601,106.417z"/>
						<path id="XMLID_303_" fill="#E2E1F1" d="M46.21,106.417l0.171,0.326c0,0,0.959,0.856,5.071,0.781
							c4.112-0.076,9.091-0.015,9.634-0.977C61.628,105.585,48.985,105.435,46.21,106.417z"/>
					</g>
					<path id="XMLID_305_" fill="#2E307B" d="M53.181,106.699c-1.465-4.305-4.375-8.105-8.15-10.641
						c-1.969-1.323-4.312-2.332-6.662-2.004c-0.708,0.098-1.438,0.343-1.896,0.893c-0.667,0.802-0.544,2.049,0.029,2.922
						c0.574,0.871,1.5,1.441,2.424,1.926c4.283,2.25,9.874,2.613,12.217,6.84c0.186,0.336,1.818-0.781,1.976-0.432"/>
					<path id="XMLID_309_" fill="#2E307B" d="M60.731,103.528c-1.132,0.491-2.168,1.21-2.903,2.212
						c-0.678,0.924-1.662,1.227-2.77,1.497c-0.089,0.022-0.188,0.042-0.27-0.003c-0.082-0.043-0.12-0.139-0.15-0.227
						c-0.273-0.807-0.386-1.664-0.693-2.459c-0.474-1.227-1.101-2.237-1.876-3.281c-1.041-1.4-1.571-3.174-1.469-4.917
						c0.535,1.778,2.188,2.173,3.728,2.699c0.433,0.147,0.622,0.284,0.717-0.185c0.125-0.607-0.36-1.545-0.529-2.133
						c-0.172-0.6-0.344-1.201-0.469-1.812c-0.118-0.576-0.193-1.16-0.227-1.746c-0.033-0.594-0.021-1.197,0.139-1.77
						c0.128-0.459,0.35-0.887,0.612-1.284c0.613-0.931,1.458-1.706,2.437-2.239c-0.157,0.543,0.099,1.117,0.41,1.59
						c0.351,0.532,0.628,1.318,1.086,1.744c0.183,0.17,0.449,0.275,0.685,0.196c0.166-0.056,0.292-0.191,0.396-0.331
						c0.382-0.515,0.566-1.133,0.819-1.712c0.273-0.626,0.646-0.993,1.083-1.484c0.986-1.107,2.215-1.926,3.742-1.993
						c0.162-0.007,0.328-0.005,0.479,0.052c0.226,0.087,0.386,0.288,0.519,0.489c0.738,1.121,0.863,2.561,0.493,3.833
						c-0.162,0.556-0.441,1.28-0.849,1.706c-0.519,0.543-1.134,0.83-1.542,1.514c-0.534,0.893,1.564,0.425,1.859,0.335
						c0.503-0.153,1.012-0.319,1.442-0.621c0.43-0.303,0.776-0.767,0.815-1.29c0.785,0.793,1.311,1.875,1.297,2.99
						c-0.034,2.936-3.057,3.004-5.149,3.76c0.493,0.484,0.895,0.877,1.645,0.92c0.519,0.029,1.046-0.133,1.458-0.448
						c-0.018,0.014-0.007,0.917-0.039,1.039c-0.096,0.362-0.275,0.702-0.521,0.985c-0.585,0.672-1.323,0.963-2.174,1.165
						C63.532,102.66,62.078,102.944,60.731,103.528z"/>
					<path id="XMLID_311_" fill="#686CB2" d="M53.255,107.047c-1.465-0.806-2.206-2.53-2.389-4.192
						c-0.184-1.663,0.084-3.34,0.105-5.012c0.021-1.702-0.223-3.434-0.949-4.973c-0.5-1.061-1.215-2.004-1.861-2.984
						c-0.646-0.979-1.237-2.028-1.44-3.184s0.037-2.443,0.866-3.274c0.612-0.613,1.469-0.915,2.317-1.093
						c0.866-0.182,1.768-0.253,2.634-0.073c0.245,0.051,0.494,0.126,0.687,0.286c0.193,0.16,0.315,0.39,0.408,0.623
						c0.685,1.708,0.073,3.622-0.324,5.419c-0.204,0.924-0.341,1.932,0.073,2.783c0.418,0.859,1.302,1.37,2.109,1.883
						c0.807,0.512,1.642,1.162,1.838,2.098c0.144,0.684-0.092,1.397-0.453,1.996c-0.361,0.598-0.843,1.112-1.261,1.673
						c-1.726,2.32-2.249,5.487-1.361,8.239"/>
				</g>
			</g>
			<g id="XMLID_324_">
				<path id="XMLID_250_" fill="#CFDFF2" d="M106.434,21.937c0,5.648-7.378,10.228-16.479,10.228c-2.368,0-4.62-0.31-6.655-0.868
					c-0.603-0.166-5.079,0.868-5.079,0.868s1.904-2.001,1.251-2.335c-3.662-1.876-5.997-4.715-5.997-7.892
					c0-5.648,7.378-10.228,16.479-10.228S106.434,16.289,106.434,21.937z"/>
				<circle id="XMLID_322_" fill="#FFFFFF" cx="83.811" cy="22.121" r="1.399"/>
				<circle id="XMLID_326_" fill="#FFFFFF" cx="90.139" cy="22.121" r="1.399"/>
				<circle id="XMLID_327_" fill="#FFFFFF" cx="96.466" cy="22.121" r="1.399"/>
			</g>
			<g id="XMLID_501_">
				<circle id="XMLID_537_" fill="#CFDFF2" cx="52.151" cy="3.793" r="2.793"/>
				<circle id="XMLID_515_" fill="#CFDFF2" cx="62.142" cy="13.344" r="1.85"/>
				<circle id="XMLID_513_" fill="#CFDFF2" cx="74.827" cy="9.489" r="1.239"/>
				<g id="XMLID_502_">
					<polygon fill="#CFDFF2" points="52.73,3.187 62.425,13.047 62.023,12.951 74.827,9.489 62.261,13.736 62.046,13.809 
						61.858,13.64 51.572,4.398 					"/>
				</g>
			</g>
			<g id="XMLID_445_">
				<path id="XMLID_462_" fill="#FFFFFF" d="M77.184,50.171c0.024,0.059,0.065,0.132,0.122,0.221
					c0.135,0.212,0.287,0.339,0.456,0.38c0.169,0.042,0.333,0.012,0.492-0.089c0.345-0.219,0.555-0.592,0.63-1.118
					c0.075-0.525,0.028-1.117-0.141-1.773c-0.169-0.656-0.433-1.267-0.793-1.833c-0.393-0.619-0.886-1.072-1.479-1.359
					c-0.592-0.287-1.242-0.39-1.946-0.308c-0.705,0.083-1.416,0.351-2.132,0.806c-1.131,0.72-2.014,1.597-2.646,2.632
					c-0.633,1.036-0.943,2.148-0.931,3.338c0.012,1.19,0.386,2.364,1.123,3.522c0.427,0.672,0.963,1.212,1.608,1.622
					c0.645,0.409,1.374,0.609,2.188,0.601c0.814-0.009,1.663-0.294,2.547-0.856c0.671-0.427,1.179-0.84,1.521-1.238
					c0.343-0.398,0.665-0.878,0.964-1.442c0.064-0.115,0.131-0.194,0.202-0.239c0.177-0.113,0.379-0.087,0.608,0.078
					c0.061,0.036,0.107,0.081,0.141,0.134c0.124,0.194,0.074,0.487-0.15,0.877c-0.365,0.617-0.731,1.145-1.098,1.583
					s-0.877,0.865-1.531,1.281c-1.132,0.72-2.215,1.085-3.25,1.098s-1.959-0.241-2.774-0.759c-0.814-0.519-1.493-1.207-2.038-2.065
					c-0.854-1.343-1.29-2.721-1.306-4.132c-0.017-1.411,0.342-2.731,1.075-3.96s1.762-2.265,3.088-3.109
					c0.972-0.618,1.925-0.963,2.86-1.036c0.935-0.073,1.78,0.09,2.537,0.49c0.757,0.4,1.383,0.989,1.878,1.767
					c0.472,0.743,0.783,1.553,0.932,2.433c0.15,0.879,0.095,1.711-0.163,2.496c-0.258,0.785-0.741,1.402-1.448,1.852
					c-0.363,0.23-0.752,0.336-1.168,0.314c-0.417-0.02-0.761-0.167-1.035-0.44c0.046,0.989-0.378,1.768-1.271,2.335
					c-0.336,0.214-0.712,0.329-1.13,0.346c-0.417,0.017-0.826-0.083-1.225-0.301c-0.399-0.217-0.736-0.543-1.012-0.977
					c-0.354-0.557-0.579-1.227-0.673-2.011c-0.095-0.784-0.025-1.533,0.21-2.247c0.234-0.714,0.63-1.248,1.188-1.602
					c0.3-0.191,0.624-0.282,0.971-0.273c0.347,0.009,0.675,0.12,0.985,0.333l-0.175-0.392c-0.063-0.158-0.069-0.329-0.017-0.511
					c0.052-0.182,0.188-0.343,0.409-0.484c0.477-0.303,0.837-0.265,1.078,0.115c0.057,0.088,0.097,0.162,0.122,0.22L77.184,50.171z
					 M74.737,48.989c-0.23-0.362-0.493-0.561-0.789-0.597c-0.295-0.036-0.598,0.045-0.907,0.242
					c-0.336,0.214-0.552,0.543-0.647,0.989c-0.095,0.445-0.085,0.92,0.03,1.424c0.116,0.503,0.294,0.946,0.536,1.326
					c0.214,0.336,0.455,0.54,0.724,0.611c0.269,0.071,0.544,0.017,0.828-0.163c0.283-0.18,0.486-0.431,0.611-0.752
					s0.187-0.652,0.187-0.994c0-0.341-0.036-0.638-0.109-0.89C75.071,49.671,74.917,49.272,74.737,48.989z"/>
			</g>
			<path id="XMLID_495_" fill="#FFFFFF" d="M12.911,26.477c-1.638-0.455-3.336,0.504-3.792,2.142
				c-0.545,1.96,1.479,6.177,1.479,6.177s3.909-2.567,4.454-4.528C15.508,28.63,14.561,26.935,12.911,26.477z M11.631,31.081
				c-0.89-0.248-1.421-1.188-1.171-2.089c0.251-0.902,1.188-1.421,2.078-1.174c0.902,0.25,1.437,1.179,1.186,2.081
				S12.533,31.332,11.631,31.081z"/>
			<path id="XMLID_476_" fill="#CFDFF2" d="M114.94,34.385l-2.25,0.233l-0.233-2.25c-0.069-0.664-0.663-1.147-1.328-1.078
				c-0.664,0.069-1.147,0.663-1.078,1.328l0.233,2.25l-2.25,0.233c-0.665,0.068-1.147,0.663-1.079,1.328
				c0.069,0.664,0.664,1.147,1.328,1.078l2.25-0.233l0.233,2.25c0.069,0.665,0.663,1.147,1.328,1.079s1.147-0.664,1.078-1.328
				l-0.233-2.25l2.25-0.233c0.664-0.069,1.147-0.663,1.078-1.328S115.604,34.316,114.94,34.385z"/>
			<path id="XMLID_500_" fill="#FFFFFF" d="M19.184,46.484L18.066,46.6l-0.116-1.118c-0.034-0.33-0.33-0.57-0.66-0.536
				s-0.57,0.33-0.536,0.66l0.116,1.118l-1.118,0.116c-0.33,0.034-0.57,0.33-0.536,0.66s0.33,0.57,0.66,0.536l1.118-0.116
				l0.116,1.118c0.034,0.33,0.33,0.57,0.66,0.536s0.57-0.33,0.536-0.66l-0.116-1.118l1.118-0.116c0.33-0.034,0.57-0.33,0.536-0.66
				C19.81,46.689,19.515,46.45,19.184,46.484z"/>
			<g id="XMLID_485_">
				<path id="XMLID_486_" fill="#CFDFF2" d="M10.375,4.409c0-1.046,0.256-1.85,0.769-2.414c0.513-0.564,1.22-0.847,2.122-0.847
					c0.431,0,0.872,0.108,1.323,0.323c0.451,0.216,0.83,0.503,1.139,0.862c0.308,0.358,0.461,0.743,0.461,1.154
					c0,0.328-0.066,0.574-0.2,0.737c-0.133,0.165-0.323,0.298-0.569,0.4c-0.225-0.143-0.512-0.216-0.86-0.216
					c-0.349,0-0.631,0.087-0.846,0.262c-0.216,0.174-0.322,0.375-0.322,0.6c0,0.513,0.287,0.922,0.86,1.23
					c0.082,0.042,0.221,0.093,0.415,0.155c0.195,0.061,0.375,0.159,0.539,0.292c0.164,0.134,0.246,0.365,0.246,0.692
					c0,0.43-0.134,0.743-0.399,0.938c-0.267,0.194-0.625,0.292-1.077,0.292c-0.594,0-1.168-0.266-1.723-0.8
					c-0.553-0.533-1.004-1.158-1.353-1.876C10.55,5.475,10.375,4.88,10.375,4.409z M3.578,4.409c0-1.046,0.257-1.85,0.769-2.414
					c0.513-0.564,1.22-0.847,2.122-0.847c0.431,0,0.872,0.108,1.323,0.323c0.451,0.216,0.831,0.503,1.138,0.862
					c0.308,0.358,0.461,0.743,0.461,1.154c0,0.328-0.066,0.574-0.2,0.737c-0.133,0.165-0.322,0.298-0.569,0.4
					C8.396,4.481,8.109,4.409,7.761,4.409c-0.348,0-0.631,0.087-0.846,0.262C6.7,4.844,6.592,5.045,6.592,5.27
					c0,0.513,0.287,0.922,0.861,1.23c0.082,0.042,0.221,0.093,0.415,0.155c0.195,0.061,0.375,0.159,0.538,0.292
					c0.165,0.134,0.247,0.365,0.247,0.692c0,0.43-0.133,0.743-0.4,0.938C7.987,8.771,7.627,8.869,7.177,8.869
					c-0.595,0-1.169-0.266-1.723-0.8C4.9,7.536,4.449,6.911,4.101,6.192C3.752,5.475,3.578,4.88,3.578,4.409z"/>
			</g>
		</g>
	</g>
</g>
<g>
</g>
<g>
</g>
<g>
</g>
<g>
</g>
<g>
</g>
<g>
</g>
</svg>
