<?xml version="1.0" encoding="utf-8"?>
<!-- Generator: Adobe Illustrator 16.0.0, SVG Export Plug-In . SVG Version: 6.00 Build 0)  -->
<!DOCTYPE svg PUBLIC "-//W3C//DTD SVG 1.1//EN" "http://www.w3.org/Graphics/SVG/1.1/DTD/svg11.dtd">
<svg version="1.1" id="Layer_1" xmlns="http://www.w3.org/2000/svg" xmlns:xlink="http://www.w3.org/1999/xlink" x="0px" y="0px"
	 width="150.23px" height="152.667px" viewBox="0 0 150.23 152.667" enable-background="new 0 0 150.23 152.667"
	 xml:space="preserve">
<g id="XMLID_3_">
	<g id="XMLID_663_">
		<g id="XMLID_434_">
			<g id="XMLID_430_">
				<g id="XMLID_431_">
					<path id="XMLID_454_" fill="#CFDFF2" d="M75.773,29.012c0,4.875-6.367,8.826-14.221,8.826c-2.044,0-3.987-0.268-5.743-0.749
						c-0.521-0.143-4.382,0.749-4.382,0.749s1.643-1.727,1.08-2.015c-3.16-1.619-5.175-4.069-5.175-6.811
						c0-4.875,6.367-8.826,14.221-8.826S75.773,24.138,75.773,29.012z"/>
					<circle id="XMLID_451_" fill="#FFFFFF" cx="56.25" cy="29.17" r="1.208"/>
					<circle id="XMLID_437_" fill="#FFFFFF" cx="61.711" cy="29.17" r="1.208"/>
					<circle id="XMLID_433_" fill="#FFFFFF" cx="67.171" cy="29.17" r="1.208"/>
				</g>
				<g id="XMLID_415_">
					<path id="XMLID_487_" fill="#CFDFF2" d="M113.387,149.766c-3.83,1.18-11.536,0.35-15.479-0.094
						c-7.103-0.783-14.205-1.585-21.317-2.358c-3.528-0.387-6.603,0.265-9.782,0.925c-1.83,0.387-3.697,0.773-5.707,0.98h-0.009
						c-3.132,0.312-6.339,0.51-9.556,0.472h-0.509c-3.33-0.065-6.65-0.377-9.895-1.057c-5.056-1.056-9.904-3.009-14.243-6.311
						c-2.519-1.934-4.773-4.329-6.141-7.244c-3.056-6.499-1.16-13.687,1.679-19.771c2.424-5.197,6.282-9.404,5.075-15.818
						c-0.962-5.075-4.556-10.311-2.358-14.876c1.462-3.027,4.849-4.046,7.886-4.452c6.669-0.887,13.517-0.283,20.016-2.179
						c8.339-2.443,10.631-8.244,14.63-15.648c3.65-6.802,9.772-12.866,16.337-15.772c9.594-4.254,20.771-2.207,30.393,1.962
						c13.196,5.707,20.11,24.562,16.12,39.485c-2.047,7.631-2.915,15.648,1.123,24.1
						C137.875,125.138,129.96,144.692,113.387,149.766z"/>
					<path id="XMLID_609_" fill="#B7CCEA" d="M80.458,143.921c17.922,4.717,37.6,11.722,46.009-7.203
						c4.966-11.175-0.497-20.759-2.384-28.305c-4.717-16.979-5.659-37.73-22.639-44.333c-19.809-8.49-25.468,13.205-39.617,21.694
						c-9.433,4.717-25.512-12.407-34.002-1.088c-5.336,8.635,5.509,13.745,6.002,21.509c0.881,13.891-12.914,15.346-7.445,29.18
						c3.773,5.66,13.75,5.109,20.354,6.996c3.134,1.567,4.67,3.824,6.603,6.053c2.729-0.026,0.091,0.343,2.751,0.078l2.279-0.157
						c0.152-0.016,0.299-0.039,0.449-0.057C63.743,141.73,71.937,141.487,80.458,143.921z"/>
					<path id="XMLID_610_" fill="#9BBCE3" d="M79.75,136.711c12.263,2.83,22.639,13.206,34.901,5.66
						c3.773-3.773,9.433-8.489,7.546-14.149c-1.887-2.83-7.546-1.887-7.546-2.83c-1.887-11.319-0.943-23.581-7.546-33.957
						c-4.717-7.546-16.036-14.149-22.639-7.546c-11.319,10.375-24.525,0.942-33.958,9.433c-6.603,6.603-1.887,16.979-8.49,26.411
						c-1.886,1.887-1.886,6.603,0,9.433c6.991,5.243,15.592,9.68,14.573,19.303l1.777-0.123c0.152-0.016,0.299-0.039,0.449-0.057
						c0.151-0.2,0.314-0.377,0.471-0.566C64.001,140.986,70.657,135.196,79.75,136.711z"/>
					<g id="XMLID_352_">
						<g id="XMLID_354_">
							<linearGradient id="XMLID_4_" gradientUnits="userSpaceOnUse" x1="55.3882" y1="84.0088" x2="78.0732" y2="84.0088">
								<stop  offset="0" style="stop-color:#FDDCCC"/>
								<stop  offset="1" style="stop-color:#FBBB97"/>
							</linearGradient>
							<path id="XMLID_456_" fill="url(#XMLID_4_)" d="M76.156,72.005c2.308-6.814-0.757-0.686-1.585,0.763
								c0.328-1.12-0.293-1.534-0.604-1.301c-1.602,3.261-1.726,5.9-1.726,5.9s-0.415,1.419-5.074,7.921
								c-1.12,1.442-1.977,2.658-2.658,3.72c-1.486-5.293-3.474-11.502-3.474-11.502s-2.89-1.394-5.646,1.706
								c2.576,11.072,4.203,14.307,6.01,17.81c0.294,0.57,0.705,1.09,1.18,1.477c0.37,0.377,0.854,0.613,1.459,0.657
								c0.044,0.005,0.088,0.008,0.133,0.011c0.3,0.006,0.627-0.031,0.987-0.125c0.169-0.221,1.08-0.69,1.281-0.896
								c2.894-2.965,6.924-15.747,8.299-18.507c1.375-2.76,3.465-2.403,3.329-4.713C77.932,72.616,77.484,72.512,76.156,72.005z"/>
							<g id="XMLID_412_">
								<g id="XMLID_413_">
									<linearGradient id="XMLID_5_" gradientUnits="userSpaceOnUse" x1="37.5669" y1="157.8696" x2="56.9656" y2="135.8845">
										<stop  offset="0" style="stop-color:#FDDCCC"/>
										<stop  offset="1" style="stop-color:#FBBB97"/>
									</linearGradient>
									<path id="XMLID_480_" fill="url(#XMLID_5_)" d="M61.109,148.384c-0.011,0.142-0.021,0.293-0.032,0.453
										c-2.85,0.252-5.091,0.812-8.012,0.851c-1.139,0.015-2.061-0.857-1.958-1.865c0-0.006,0.001-0.012,0.002-0.019
										c0.059-0.745,0.155-1.481,0.271-2.219c0.018-0.111,0.022-0.224,0.014-0.336c-0.548-7.353-1.125-14.927-1.347-17.811
										c-0.063-0.782-0.096-1.217-0.096-1.217l9.64,0.967c0.953,0.096,4.26-4.177,4.35-3.329
										C64.961,133.503,61.994,144.494,61.109,148.384z"/>
									<path id="XMLID_10_" opacity="0.2" fill="#EF9D79" d="M53.033,116.299l-2.409-0.179c0,0,0.669,13.955,1.293,20.089
										c-0.459,2.026-0.487,4.061-0.263,6.37C55.51,130.503,52.935,124.974,53.033,116.299z"/>
									<linearGradient id="XMLID_6_" gradientUnits="userSpaceOnUse" x1="41.3003" y1="155.7598" x2="44.3185" y2="126.1816">
										<stop  offset="0" style="stop-color:#FDDCCC"/>
										<stop  offset="1" style="stop-color:#FBBB97"/>
									</linearGradient>
									<path id="XMLID_479_" fill="url(#XMLID_6_)" d="M52.141,146.107c-0.142,0.528-0.302,1.104-0.491,1.697
										c-0.002,0.007-0.004,0.014-0.006,0.021c-0.312,0.996-1.29,1.629-2.33,1.525c-2.771-0.276-5.205-0.73-7.531-1.083
										c-1.049-0.159-7.075-24.519-7.075-24.519l15.998,3.69l1.906,0.67C52.612,128.109,53.442,134.259,52.141,146.107z"/>
									<path id="XMLID_439_" fill="#1F1814" d="M60.704,63.123c-0.261-0.24-0.508-0.496-0.736-0.772
										c-4.096-4.958,0.796-11.865-3.17-17.059c-2.896-3.544-7.843-5.942-11.647-3.239c-0.312,0.221-1.729,0.033-2.135,0.086
										c-1.624,0.211-3.221,0.733-4.608,1.611c-3.175,2.01-4.455,5.492-5.038,9.043c-0.663,4.036-1.392,7.729-4.196,10.91
										c-0.794,0.9-1.694,1.715-2.377,2.702s-1.139,2.211-0.894,3.387c0.275,1.316,1.375,2.362,1.573,3.693
										c0.302,2.02-1.424,3.63-2.109,5.38c-0.778,1.99-0.776,4.04,0.125,6.002c0.828,1.803,2.212,3.29,3.681,4.623
										c1.462,1.327,3.051,2.546,4.853,3.353c1.802,0.807,3.84,1.181,5.774,0.784c1.417-0.291,2.716-0.977,3.994-1.653
										c0.478-0.253,1.037-0.76,0.759-1.224c1.591,0.416,3.089,1.125,4.651,1.644c1.562,0.518,3.25,0.842,4.849,0.456
										c2.053-0.495,3.666-2.086,4.896-3.802c1.231-1.716,2.197-3.624,3.58-5.22c1.339-1.546,3.015-2.774,4.276-4.391
										c1.259-1.614,1.743-3.755,1.833-5.776c0.102-2.282-0.668-4.624-2.232-6.289C64.78,65.642,62.433,64.716,60.704,63.123z"/>
									<path id="XMLID_436_" fill="#2B221E" d="M64.184,66.352c3.164,1.187,3.936,4.764,4.35,8.474
										c0.049-0.39,0.085-0.779,0.103-1.165c0.102-2.282-0.668-4.624-2.232-6.289c-1.625-1.729-3.972-2.655-5.701-4.249
										c-0.261-0.24-0.508-0.496-0.736-0.772c-4.096-4.958,0.796-11.865-3.17-17.059c-0.68-0.832-1.474-1.599-2.338-2.253
										C56.655,51.332,53.522,62.291,64.184,66.352z"/>
									<path id="XMLID_435_" fill="#FFFFFF" d="M56.965,70.696c0,0-2.778-1.035-3.824,2.438
										c-1.046,3.473,4.797,14.432,4.797,14.432s5.503-0.932,7.556-3.021C62.856,79.229,62.168,72.842,56.965,70.696z"/>
									<path id="XMLID_432_" fill="#FCC9AF" d="M43.823,64.798c0,0,0.035,3.525-0.77,4.932c0,0,1.857,2.997,6.658,2.554
										c2.81-0.408,4.229-2.433,4.229-2.433s-1.462-2.714-1.128-5.2C52.15,65.01,47.135,66.181,43.823,64.798z"/>
									<path id="XMLID_429_" opacity="0.3" fill="#EF9D79" d="M52.765,65.39c0.001-0.247,0.013-0.494,0.046-0.739
										c-0.661,0.359-5.676,1.53-8.988,0.147c0,0,0.035,3.525-0.77,4.932c0,0,0.428,0.68,1.389,1.345
										C47.937,70.232,50.725,68.155,52.765,65.39z"/>
									<path id="XMLID_428_" fill="#686CB2" d="M59.301,103.382c-0.594-2.161-0.747-7.19-0.171-13.231
										c2.778-2.585,2.874-4.672,2.447-7.001c-0.995-5.428-4.062-4.392-5.029-12.599c-2.488-0.765-0.89-0.019-7.082,1.584
										c-6.671,1.081-8.264-1.67-8.264-1.67s-6.655-0.134-8.215,7.843c-0.326,1.664,1.143,3.997,1.761,5.444
										c1.299,3.043,2.513,6.115,3.164,9.371c0.357,1.789,0.727,3.605,0.719,5.438c-0.009,1.955-0.758,3.324-1.419,5.089
										c-1.532,4.09-2.933,6.437-3.923,10.716c-1.599,6.904-1.736,12.46-1.4,19.539c0.232,4.887,0.276,8.955,0,9.818
										c2.048,0.898,4.39-1.59,6.485-0.812c0.329,0.123,0.632,0.322,0.977,0.386c0.534,0.099,1.065-0.143,1.557-0.374
										c1.109-0.523,2.292-1.044,3.514-0.933c0.921,0.085,1.769,0.521,2.657,0.781c3.337,0.977,6.703-0.576,9.841-1.562
										c1.573-0.493,3.321-1.035,4.992-0.923c0.908,0.061,5.668,0.505,5.976-1.157C70.274,126.192,65.101,112.216,59.301,103.382z
										"/>
									<path id="XMLID_443_" fill="#E7E7E7" d="M47.594,91.482c-8.278-1.265-5.711-12.521-12.723-17.678
										c-0.817,1.1-1.503,2.558-1.884,4.504c-0.326,1.664,1.143,3.997,1.761,5.444c1.299,3.043,2.513,6.115,3.164,9.371
										c0.357,1.789,0.727,3.605,0.719,5.438c-0.009,1.955-0.758,3.324-1.419,5.088c-0.981,2.62-1.907,4.529-2.708,6.685
										c4.35-5.699,7.219-10.25,10.659-17.13C45.162,92.878,47.077,91.73,47.594,91.482z"/>
									<path id="XMLID_427_" fill="#FFFFFF" d="M49.466,72.135c0,0-3.662-0.534-5.982-3.646c-0.31-0.462-2.709,0.166-2.624,2.32
										S46.528,78.361,49.466,72.135z"/>
									<path id="XMLID_426_" fill="#FFFFFF" d="M49.466,72.135c0,0,2.396-1.837,3.656-4.367c0.626-0.39,2.581,0.699,2.775,2.382
										C56.092,71.833,53.939,76.985,49.466,72.135z"/>
									<linearGradient id="XMLID_7_" gradientUnits="userSpaceOnUse" x1="37.7891" y1="56.3853" x2="55.9502" y2="56.3853">
										<stop  offset="0" style="stop-color:#FDDCCC"/>
										<stop  offset="1" style="stop-color:#FBBB97"/>
									</linearGradient>
									<path id="XMLID_423_" fill="url(#XMLID_7_)" d="M55.661,55.004c0,0,1.582,5.3-2.646,9.646
										c-0.99,1.018-0.799,1.787-2.878,2.178C39.62,67.159,37.912,56.541,37.79,53.004C37.666,49.468,56.725,37.997,55.661,55.004
										z"/>
									<path id="XMLID_420_" opacity="0.3" fill="#EF9D79" d="M50.188,48.32c0,0-0.468,5.041-6.779,6.603
										c-2.866,0.688-4.001,3.443-4.521,7.422c-1.632-2.291-5.546-9.124-1.187-14.771C40.245,45.17,47.671,41.995,50.188,48.32z"
										/>
									<path id="XMLID_417_" opacity="0.3" fill="#EF9D79" d="M49.374,48.736c0,0,0.406,2.065,3.649,3.149
										c1.371,0.496,4.844,1.231,5.333,3.119c1.015-2.144,0.025-9.112-5.534-11.607c-5.56-2.495-7.115,1.022-7.115,1.022
										L49.374,48.736z"/>
									<path id="XMLID_414_" fill="#342C28" d="M49.193,48.07c0,0,0.415,2.248,3.783,3.417c1.424,0.535,5.034,1.323,5.535,3.378
										c1.063-2.338,0.06-9.926-5.712-12.623c-5.773-2.697-7.403,1.14-7.403,1.14L49.193,48.07z"/>
								</g>
							</g>
							<linearGradient id="XMLID_8_" gradientUnits="userSpaceOnUse" x1="32.9824" y1="106.1953" x2="40.5493" y2="106.1953">
								<stop  offset="0" style="stop-color:#FDDCCC"/>
								<stop  offset="1" style="stop-color:#FBBB97"/>
							</linearGradient>
							<path id="XMLID_411_" fill="url(#XMLID_8_)" d="M39.174,80.472c0,0,1.115,13.844,0.848,18.197s1.268,5.457-0.241,14.449
								c-1.018,7.934-0.71,9.38-0.71,9.38s2.125,1.928,1.279,6.013c-0.164,0.354-1.083,0.231-1.187-2.214
								c-0.361,1.669,0.169,2.348,0.955,4.491c0.83,2.265-3.501,0.745-4.716-1.225s0.034-5.413-0.064-8.495
								c-0.099-3.082-2.21-15.647-1.448-20.541c0.638-4.094-0.918-4.576-0.908-17.378C36.372,80.758,39.174,80.472,39.174,80.472z"
								/>
							<path id="XMLID_410_" fill="#FFFFFF" d="M36.91,75.039c0,0-2.418-1.714-4.322,1.374C30.683,79.5,32.69,91.678,32.69,91.678
								s6.38,0.429,8.902-1.063C40.409,84.8,41.387,78.452,36.91,75.039z"/>
							<path id="XMLID_355_" fill="#342C28" d="M49.933,47.547c0.099,0.309-0.22,0.993-0.319,1.268
								c-0.369,1.024-0.963,1.965-1.719,2.749c-1.153,1.196-2.498,1.763-4.013,2.327c-1.643,0.61-3.048,1.879-3.832,3.445
								c-0.888,1.775-0.977,3.933-0.237,5.775c0.868,2.162,5.391,7.136,4.402,9.707c-0.435,1.132-1.661-0.445-2.053,0.7
								c-0.401,1.171-1.136,2.194-1.851,3.191c-1.14,1.593-2.415,2.941-4.097,3.965c-2.488,1.515-5.501,2.146-8.389,1.76
								c0.916-0.758,1.687-1.752,1.946-2.911c0.349-1.562-0.258-3.156-0.727-4.688c-0.508-1.658-0.594-3.538-0.314-5.256
								c0.344-2.12,1.976-3.589,2.993-5.373c1.739-3.051,1.278-6.719,1.424-10.081c0.139-3.213,1.157-6.501,3.576-8.787
								C39.267,42.937,47.063,38.579,49.933,47.547z"/>
						</g>
					</g>
					<g id="XMLID_379_">
						<path id="XMLID_407_" fill="#2E307B" d="M111.463,145.214l-27.013-8.016c-2.368-0.703-3.992-2.879-3.992-5.35V35.256
							c0-2.47,1.624-4.646,3.992-5.349l27.013-8.016c3.576-1.062,11.677,1.618,11.677,5.349v112.626
							C123.14,143.596,115.04,146.276,111.463,145.214z"/>
						<path id="XMLID_353_" fill="#F27070" d="M111.463,145.214l-27.013-8.016c-2.368-0.703-3.992-2.879-3.992-5.35V35.256
							c0-2.47,1.624-4.646,3.992-5.349l27.013-8.016c3.576-1.062,7.167,1.618,7.167,5.349v112.626
							C118.63,143.596,115.04,146.276,111.463,145.214z"/>
						<polygon id="XMLID_409_" fill="#FFFFFF" points="115.806,136.519 82.117,127.187 82.117,40.751 115.806,31.419 						"/>
						<g id="XMLID_360_">
							<path id="XMLID_356_" fill="#686CB2" d="M110.732,47.468l-22.071,6.073c-2.227,0.612-4.356-1.377-4.356-4.067v-0.739
								c0-1.94,1.136-3.625,2.741-4.067l22.071-6.072c2.226-0.612,4.355,1.376,4.355,4.067v0.739
								C113.472,45.341,112.337,47.026,110.732,47.468z"/>
							<g id="XMLID_359_">
								<path id="XMLID_357_" fill="none" stroke="#FFFFFF" stroke-width="0.4864" stroke-miterlimit="10" d="M89.117,46.986
									c0.631,0.707,0.63,1.852-0.003,2.557c-0.632,0.705-1.655,0.704-2.286-0.003s-0.63-1.852,0.002-2.557
									C87.462,46.278,88.486,46.279,89.117,46.986z"/>
								<path id="XMLID_358_" fill="#FFFFFF" d="M91.075,51.741L91.075,51.741c0.149-0.167,0.149-0.44,0-0.607l-1.498-1.68
									c-0.149-0.167-0.394-0.168-0.543-0.001l0,0c-0.149,0.167-0.15,0.44-0.001,0.608l1.498,1.679
									C90.68,51.907,90.924,51.908,91.075,51.741z"/>
							</g>
						</g>
						<polygon id="XMLID_362_" fill="#CFDFF2" points="112.449,76.167 84.765,80.346 84.765,76.126 112.449,70.387 						"/>
						<polygon id="XMLID_382_" fill="#CFDFF2" points="112.449,86.621 84.765,88.532 84.765,84.312 112.449,80.842 						"/>
						<polygon id="XMLID_406_" fill="#CFDFF2" points="112.449,97.507 84.765,96.717 84.765,92.499 112.449,91.729 						"/>
					</g>
				</g>
			</g>
			<g id="XMLID_460_">
				<circle id="XMLID_455_" fill="#CFDFF2" cx="88.283" cy="18.24" r="2.634"/>
				<circle id="XMLID_458_" fill="#CFDFF2" cx="101.25" cy="16.894" r="1.745"/>
				<circle id="XMLID_459_" fill="#CFDFF2" cx="106.229" cy="5.422" r="1.168"/>
				<g id="XMLID_457_">
					<polygon fill="#CFDFF2" points="88.201,17.454 101.21,16.509 100.896,16.74 106.229,5.422 101.605,17.048 101.526,17.247 
						101.291,17.279 88.365,19.026 					"/>
				</g>
			</g>
			<g id="XMLID_603_">
				<path id="XMLID_604_" fill="#CFDFF2" d="M44.146,8.121c0,0.037,0.007,0.084,0.019,0.144c0.027,0.142,0.082,0.242,0.163,0.3
					c0.082,0.058,0.176,0.077,0.283,0.056c0.231-0.044,0.423-0.199,0.575-0.465s0.252-0.592,0.3-0.979
					c0.049-0.387,0.037-0.771-0.036-1.149c-0.079-0.415-0.247-0.762-0.503-1.042c-0.256-0.279-0.583-0.472-0.977-0.577
					c-0.395-0.105-0.833-0.112-1.312-0.02c-0.758,0.145-1.417,0.428-1.975,0.849c-0.559,0.42-0.96,0.951-1.207,1.59
					c-0.246,0.64-0.294,1.348-0.146,2.125c0.086,0.45,0.259,0.854,0.518,1.209c0.259,0.356,0.607,0.617,1.044,0.786
					c0.438,0.168,0.953,0.195,1.545,0.082c0.45-0.086,0.81-0.2,1.078-0.34c0.268-0.141,0.542-0.33,0.822-0.568
					c0.059-0.048,0.111-0.077,0.159-0.085c0.119-0.023,0.222,0.034,0.309,0.171c0.025,0.032,0.041,0.066,0.047,0.102
					c0.025,0.13-0.064,0.276-0.266,0.438c-0.326,0.253-0.634,0.458-0.923,0.615c-0.29,0.157-0.654,0.277-1.092,0.361
					c-0.759,0.146-1.416,0.112-1.973-0.101c-0.557-0.213-0.998-0.544-1.324-0.995c-0.326-0.451-0.544-0.963-0.654-1.538
					c-0.172-0.9-0.114-1.73,0.177-2.49c0.29-0.759,0.762-1.39,1.415-1.893c0.653-0.503,1.424-0.84,2.313-1.01
					c0.651-0.125,1.235-0.108,1.751,0.051c0.516,0.159,0.935,0.426,1.255,0.8c0.321,0.375,0.531,0.823,0.631,1.344
					c0.095,0.498,0.09,0.998-0.017,1.5c-0.106,0.503-0.312,0.937-0.617,1.302c-0.304,0.366-0.694,0.594-1.167,0.685
					C44.116,9.426,43.885,9.4,43.667,9.3c-0.218-0.099-0.372-0.251-0.46-0.456c-0.185,0.54-0.577,0.867-1.176,0.981
					c-0.225,0.043-0.451,0.025-0.678-0.054c-0.228-0.079-0.425-0.22-0.592-0.421c-0.167-0.201-0.279-0.447-0.335-0.737
					c-0.071-0.373-0.05-0.78,0.065-1.219c0.115-0.44,0.312-0.827,0.589-1.159c0.277-0.333,0.603-0.535,0.976-0.606
					c0.201-0.039,0.394-0.019,0.578,0.06c0.184,0.079,0.336,0.208,0.457,0.387l-0.011-0.247c0-0.098,0.033-0.19,0.099-0.277
					s0.174-0.144,0.322-0.172c0.32-0.062,0.504,0.036,0.553,0.29c0.011,0.06,0.017,0.107,0.018,0.144L44.146,8.121z M43.086,6.97
					c-0.046-0.243-0.145-0.405-0.296-0.487c-0.151-0.082-0.33-0.103-0.537-0.063c-0.226,0.043-0.411,0.174-0.556,0.392
					s-0.241,0.475-0.286,0.769c-0.045,0.294-0.043,0.569,0.006,0.824c0.043,0.225,0.129,0.385,0.258,0.48
					c0.129,0.095,0.288,0.125,0.478,0.088c0.189-0.036,0.352-0.127,0.486-0.273c0.135-0.146,0.239-0.31,0.311-0.493
					c0.072-0.183,0.116-0.35,0.13-0.5C43.12,7.405,43.123,7.159,43.086,6.97z"/>
			</g>
			<path id="XMLID_483_" fill="#CFDFF2" d="M27.212,23.501c-2.284,0-4.137,1.853-4.137,4.136c0,2.733,4.137,7.462,4.137,7.462
				s4.137-4.729,4.137-7.462C31.349,25.354,29.512,23.501,27.212,23.501z M27.212,29.921c-1.241,0-2.267-1.026-2.267-2.284
				c0-1.257,1.026-2.267,2.267-2.267c1.257,0,2.283,1.009,2.283,2.267C29.496,28.896,28.47,29.921,27.212,29.921z"/>
			<g id="XMLID_461_">
				<path id="XMLID_470_" fill="#CFDFF2" d="M21.505,50.113c-2.196,0-3.964,1.776-3.964,3.964c0,2.191,1.769,3.965,3.964,3.965
					c2.188,0,3.964-1.773,3.964-3.965C25.469,51.889,23.692,50.113,21.505,50.113z M22.976,55.992
					c-0.248,0.252-0.562,0.419-0.947,0.507v0.44c0,0.126-0.042,0.227-0.126,0.311c-0.083,0.083-0.184,0.125-0.31,0.125
					c-0.117,0-0.218-0.042-0.297-0.125c-0.084-0.084-0.122-0.185-0.122-0.311v-0.398c-0.256-0.024-0.49-0.079-0.704-0.163
					c-0.209-0.084-0.415-0.214-0.616-0.386c-0.126-0.113-0.193-0.238-0.193-0.377c0-0.109,0.042-0.205,0.121-0.289
					c0.08-0.084,0.18-0.126,0.293-0.126c0.088,0,0.172,0.029,0.243,0.088c0.147,0.117,0.285,0.214,0.419,0.281
					c0.134,0.066,0.277,0.117,0.436,0.139V54.32c-0.956-0.176-1.433-0.653-1.433-1.434c0-0.394,0.134-0.716,0.398-0.972
					c0.268-0.256,0.612-0.411,1.035-0.465V51.21c0-0.122,0.042-0.227,0.122-0.306c0.083-0.084,0.188-0.126,0.31-0.126
					s0.222,0.042,0.302,0.126c0.08,0.079,0.122,0.184,0.122,0.306v0.264c0.402,0.071,0.733,0.223,0.998,0.444
					c0.138,0.109,0.205,0.234,0.205,0.377c0,0.109-0.042,0.206-0.122,0.289c-0.08,0.084-0.176,0.122-0.285,0.122
					c-0.071,0-0.134-0.021-0.192-0.063c-0.143-0.117-0.344-0.222-0.604-0.306v1.32c0.461,0.109,0.796,0.269,1.001,0.478
					c0.209,0.214,0.314,0.524,0.314,0.931C23.345,55.43,23.223,55.741,22.976,55.992z M22.029,54.525v1.119
					c0.138-0.059,0.247-0.134,0.335-0.227c0.084-0.092,0.126-0.192,0.126-0.302c0-0.134-0.038-0.247-0.113-0.343
					C22.301,54.671,22.184,54.592,22.029,54.525z M20.583,52.849c0,0.159,0.05,0.285,0.146,0.381
					c0.101,0.101,0.248,0.176,0.444,0.235v-1.187c-0.197,0.042-0.344,0.109-0.444,0.21C20.633,52.589,20.583,52.707,20.583,52.849z"
					/>
			</g>
			<path id="XMLID_441_" fill="#CFDFF2" d="M71.587,44.556h-2.134v-2.134c0-0.63-0.511-1.141-1.141-1.141
				c-0.63,0-1.141,0.511-1.141,1.141v2.134h-2.134c-0.63,0-1.141,0.511-1.141,1.141c0,0.63,0.511,1.141,1.141,1.141h2.134v2.134
				c0,0.631,0.511,1.142,1.141,1.142c0.63,0,1.141-0.511,1.141-1.142v-2.134h2.134c0.63,0,1.141-0.511,1.141-1.141
				C72.728,45.066,72.217,44.556,71.587,44.556z"/>
			<path id="XMLID_438_" fill="#CFDFF2" d="M24.153,101.613h-2.134v-2.134c0-0.63-0.511-1.141-1.141-1.141
				c-0.63,0-1.141,0.511-1.141,1.141v2.134h-2.134c-0.63,0-1.141,0.511-1.141,1.142c0,0.63,0.511,1.141,1.141,1.141h2.134v2.134
				c0,0.63,0.511,1.141,1.141,1.141c0.63,0,1.141-0.511,1.141-1.141v-2.134h2.134c0.63,0,1.141-0.511,1.141-1.141
				C25.294,102.124,24.784,101.613,24.153,101.613z"/>
		</g>
	</g>
</g>
<g>
</g>
<g>
</g>
<g>
</g>
<g>
</g>
<g>
</g>
<g>
</g>
</svg>
